<svg width="28px" height="23px" viewBox="0 0 28 23" version="1.1" xmlns="http://www.w3.org/2000/svg" xmlns:xlink="http://www.w3.org/1999/xlink">
    <!-- Generator: Sketch 51.3 (57544) - http://www.bohemiancoding.com/sketch -->
    <desc>Created with Sketch.</desc>
    <defs>
        <filter x="-3.1%" y="-0.7%" width="106.2%" height="102.1%" filterUnits="objectBoundingBox" id="filter-1">
            <feOffset dx="0" dy="2" in="SourceAlpha" result="shadowOffsetOuter1"></feOffset>
            <feGaussianBlur stdDeviation="2" in="shadowOffsetOuter1" result="shadowBlurOuter1"></feGaussianBlur>
            <feColorMatrix values="0 0 0 0 0   0 0 0 0 0   0 0 0 0 0  0 0 0 0.5 0" type="matrix" in="shadowBlurOuter1" result="shadowMatrixOuter1"></feColorMatrix>
            <feMerge>
                <feMergeNode in="shadowMatrixOuter1"></feMergeNode>
                <feMergeNode in="SourceGraphic"></feMergeNode>
            </feMerge>
        </filter>
    </defs>
    <g id="Page-1" stroke="none" stroke-width="1" fill="none" fill-rule="evenodd" opacity="0.7">
        <g id="Push-Notifications-Dashboard-UI" transform="translate(-117.000000, -598.000000)">
            <g id="Sidebar" transform="translate(77.000000, 178.000000)">
                <g id="Sidebar-items" filter="url(#filter-1)" transform="translate(44.000000, 140.000000)">
                    <g id="One-signal" transform="translate(0.000000, 277.000000)">
                        <g id="Group-17" transform="translate(0.000000, 4.000000)">
                            <path d="M12.4212143,11.5617143 C12.0262143,11.5602857 11.7076429,11.2395714 11.7090714,10.8452857 C11.7097857,10.6481429 11.7912143,10.4602857 11.9347857,10.326 C13.0905,9.25171429 13.1569286,7.44385714 12.0826429,6.28814286 C12.0355,6.23671429 11.9862143,6.18742857 11.9347857,6.14028571 C11.6290714,5.89171429 11.5819286,5.44171429 11.8305,5.13528571 C12.0790714,4.82885714 12.5283571,4.78171429 12.8347857,5.03028571 C12.8605,5.051 12.8840714,5.07385714 12.9069286,5.09742857 C14.6397857,6.70885714 14.7397857,9.42028571 13.1283571,11.1545714 C13.0576429,11.231 12.9833571,11.3045714 12.9069286,11.376 C12.7740714,11.4967143 12.6005,11.5624286 12.4212143,11.5617143" id="Fill-1" fill="#FFFFFF"></path>
                            <path d="M7.56385714,11.5617143 C7.38314286,11.561 7.20957143,11.4917143 7.07814286,11.3688571 C5.34457143,9.75742857 5.24457143,7.046 6.856,5.31171429 C6.92742857,5.23528571 7.00171429,5.16171429 7.07814286,5.09028571 C7.34742857,4.80242857 7.79957143,4.78742857 8.08742857,5.05671429 C8.376,5.32671429 8.391,5.77814286 8.121,6.066 C8.09885714,6.09028571 8.07457143,6.11242857 8.04957143,6.13314286 C6.89385714,7.20742857 6.82742857,9.01528571 7.90171429,10.171 C7.94957143,10.2224286 7.99814286,10.271 8.04957143,10.3188571 C8.33742857,10.5881429 8.35242857,11.0402857 8.08314286,11.3281429 C7.94814286,11.4724286 7.76028571,11.5538571 7.56385714,11.5545714 L7.56385714,11.5617143 Z" id="Fill-3" fill="#FFFFFF"></path>
                            <path d="M14.3638571,13.6543571 C13.9688571,13.6529286 13.6502857,13.3322143 13.6517143,12.9379286 C13.6524286,12.7415 13.7345714,12.5529286 13.8781429,12.4193571 C16.1881429,10.2679286 16.3167143,6.65221429 14.1667143,4.34292857 C14.0738571,4.24292857 13.9774286,4.14721429 13.8781429,4.05435714 C13.5881429,3.7865 13.571,3.33364286 13.8388571,3.04364286 C14.1074286,2.75364286 14.5595714,2.7365 14.8495714,3.00435714 C17.7395714,5.69007143 17.9045714,10.2093571 15.2188571,13.0993571 C15.1002857,13.2265 14.9767143,13.3500714 14.8495714,13.4686429 C14.7167143,13.5893571 14.5431429,13.6557857 14.3638571,13.6543571" id="Fill-5" fill="#FFFFFF"></path>
                            <path d="M5.62085714,13.6543571 C5.44085714,13.6536429 5.26657143,13.5843571 5.13514286,13.4615 C2.24514286,10.7757857 2.08014286,6.2565 4.76585714,3.36721429 C4.88442857,3.23935714 5.008,3.11578571 5.13514286,2.99721429 C5.42514286,2.72935714 5.87728571,2.7465 6.14585714,3.0365 C6.41442857,3.3265 6.39657143,3.77935714 6.10657143,4.04721429 C3.79657143,6.19792857 3.668,9.81364286 5.81871429,12.1229286 C5.91085714,12.2229286 6.00728571,12.3193571 6.10657143,12.4115 C6.39442857,12.6815 6.40942857,13.1336429 6.14014286,13.4215 C6.00585714,13.5650714 5.81728571,13.6465 5.62085714,13.6472143 L5.62085714,13.6543571 Z" id="Fill-7" fill="#FFFFFF"></path>
                            <g id="Group-11" transform="translate(15.000000, 0.040214)">
                                <polygon id="Clip-10" points="0.587246154 0.674285714 4.98472772 0.674285714 4.98472772 15.7068156 0.587246154 15.7068156"></polygon>
                                <path d="M1.30657143,15.7067857 C0.912285714,15.7103571 0.590142857,15.3932143 0.587285714,14.9982143 C0.585142857,14.7953571 0.670142857,14.6010714 0.820857143,14.4646429 C4.28657143,11.2396429 4.48157143,5.81607143 1.25728571,2.35035714 C1.11657143,2.19964286 0.971571429,2.05464286 0.820857143,1.91392857 C0.530857143,1.64607143 0.513714286,1.19392857 0.782285714,0.903214286 C1.05014286,0.613928571 1.50228571,0.596071429 1.79228571,0.864642857 C5.838,4.62392857 6.06942857,10.9510714 2.30942857,14.9967857 C2.14371429,15.1760714 1.97157143,15.3482143 1.79228571,15.5139286 C1.66085714,15.6375 1.48728571,15.7067857 1.30657143,15.7067857" id="Fill-9" fill="#FFFFFF"></path>
                            </g>
                            <g id="Group-14" transform="translate(0.000000, 0.040214)">
                                <polygon id="Clip-13" points="5.79976822e-05 0.681059289 4.39760966 0.681059289 4.39760966 15.7142857 5.79976822e-05 15.7142857"></polygon>
                                <path d="M3.67821429,15.7067857 C3.49892857,15.7082143 3.32535714,15.6417857 3.1925,15.5210714 C-0.853214286,11.7617857 -1.08464286,5.43464286 2.67535714,1.38892857 C2.84107143,1.21035714 3.01392857,1.0375 3.1925,0.871071429 C3.4825,0.603214286 3.93464286,0.620357143 4.20321429,0.911071429 C4.47107143,1.20035714 4.45392857,1.65321429 4.16392857,1.92178571 C0.698214286,5.14607143 0.503214286,10.5696429 3.7275,14.0353571 C3.86821429,14.1860714 4.01321429,14.3310714 4.16392857,14.4717857 C4.45535714,14.7367857 4.4775,15.1882143 4.21178571,15.4803571 C4.07535714,15.6310714 3.88107143,15.7160714 3.67821429,15.7146429 L3.67821429,15.7067857 Z" id="Fill-12" fill="#FFFFFF"></path>
                            </g>
                            <path d="M9.99235714,6.8045 C10.7809286,6.8045 11.4209286,7.4445 11.4209286,8.23307143 C11.4209286,9.02164286 10.7809286,9.66164286 9.99235714,9.66164286 C9.20378571,9.66164286 8.56378571,9.02164286 8.56378571,8.23307143 C8.56378571,7.4445 9.20378571,6.8045 9.99235714,6.8045" id="Fill-15" fill="#FFFFFF"></path>
                        </g>
                    </g>
                </g>
            </g>
        </g>
    </g>
</svg>
