<svg width="36px" height="36px" viewBox="0 0 36 36" version="1.1" xmlns="http://www.w3.org/2000/svg" xmlns:xlink="http://www.w3.org/1999/xlink">
    <!-- Generator: Sketch 51.3 (57544) - http://www.bohemiancoding.com/sketch -->
    <desc>Created with Sketch.</desc>
    <defs></defs>
    <g id="Page-1" stroke="none" stroke-width="1" fill="none" fill-rule="evenodd">
        <g id="Push-Notifications-Dashboard-UI" transform="translate(-693.000000, -408.000000)">
            <g id="Realtime-Data" transform="translate(397.000000, 388.000000)">
                <g id="Completed-block" transform="translate(276.000000, 0.000000)">
                    <g id="Completed/icon" transform="translate(20.000000, 20.000000)">
                        <g>
                            <circle id="Oval-Copy-7" fill-opacity="0.5" fill="#FFFFFF" opacity="0.24" cx="18" cy="18" r="18"></circle>
                            <g id="Group-6-Copy-2" transform="translate(9.000000, 8.000000)">
                                <path d="M9.31417143,5.79710145 C8.85702857,5.79710145 8.48588571,6.17391304 8.48588571,6.63768116 L8.48588571,10.8405797 C8.48588571,11.1594203 8.65702857,11.4492754 8.94274286,11.5942029 L12.0573143,13.2173913 C12.1713143,13.2753623 12.3141714,13.3043478 12.4284571,13.3043478 C12.7427429,13.3043478 13.0284571,13.1304348 13.1713143,12.8405797 C13.3713143,12.4347826 13.2284571,11.9130435 12.7998857,11.7101449 L10.1427429,10.3188406 L10.1427429,6.63768116 C10.1427429,6.17391304 9.7716,5.79710145 9.31417143,5.79710145" id="Fill-1" fill="#FFFFFF"></path>
                                <g id="Group-5" transform="translate(0.000000, 0.057971)">
                                    <polygon id="Clip-4" points="0 0.231942029 17.9442857 0.231942029 17.9442857 19.7101449 0 19.7101449"></polygon>
                                    <path d="M16.9428,6.08701449 L16.9716571,6.08701449 C17.1713714,6.08701449 17.3713714,6.00005797 17.5142286,5.88411594 C17.6859429,5.73918841 17.7713714,5.53628986 17.7713714,5.3044058 L17.9428,1.7102029 C17.9716571,1.24643478 17.5999429,0.840637681 17.1428,0.840637681 C16.6859429,0.811652174 16.2856571,1.18846377 16.2856571,1.65223188 L16.2285143,2.9275942 C14.4570857,1.21744928 12.0856571,0.231942029 9.59994286,0.231942029 C4.28565714,0.231942029 -5.71428571e-05,4.60875362 -5.71428571e-05,9.97107246 C-5.71428571e-05,15.3623768 4.31422857,19.7102029 9.59994286,19.7102029 C12.8288,19.7102029 15.8288,18.0867246 17.5999429,15.3623768 C17.8570857,14.9855652 17.7428,14.4635362 17.3713714,14.2029565 C16.9999429,13.942087 16.4856571,14.058029 16.2285143,14.4348406 C14.7428,16.6957101 12.2573714,18.0290435 9.59994286,18.0290435 C5.19994286,18.0290435 1.65708571,14.4058551 1.65708571,9.97107246 C1.65708571,5.53628986 5.22851429,1.91310145 9.59994286,1.91310145 C11.7713714,1.91310145 13.8288,2.81165217 15.3142286,4.37686957 L13.4285143,4.28991304 C12.9716571,4.26092754 12.5713714,4.63773913 12.5713714,5.10150725 C12.5430857,5.56527536 12.9142286,5.97107246 13.3713714,5.97107246 L16.9428,6.08701449 Z" id="Fill-3" fill="#FFFFFF"></path>
                                </g>
                            </g>
                        </g>
                    </g>
                </g>
            </g>
        </g>
    </g>
</svg>
