
<svg width="38px" height="38px" viewBox="0 0 38 38" version="1.1" xmlns="http://www.w3.org/2000/svg" xmlns:xlink="http://www.w3.org/1999/xlink">
    <!-- Generator: Sketch 51.3 (57544) - http://www.bohemiancoding.com/sketch -->
    <desc>Created with Sketch.</desc>
    <defs></defs>
    <g id="Page-1" stroke="none" stroke-width="1" fill="none" fill-rule="evenodd">
        <g id="Push-Notifications-Dashboard-UI" transform="translate(-416.000000, -407.000000)" fill="#FFFFFF">
            <g id="Realtime-Data" transform="translate(397.000000, 388.000000)">
                <g id="Start-sending-block">
                    <g id="Start/icon" transform="translate(20.000000, 20.000000)">
                        <circle id="Oval-Copy-6" stroke="#979797" opacity="0.168024554" cx="18" cy="18" r="18"></circle>
                        <g id="Group-5-Copy-3" transform="translate(8.000000, 8.000000)">
                            <path d="M15.8029979,4.19700214 C14.3040685,2.69807281 12.248394,1.7987152 9.97858672,1.7987152 C7.70877944,1.7987152 5.69593148,2.69807281 4.19700214,4.19700214 C2.69807281,5.69593148 1.7987152,7.70877944 1.7987152,9.97858672 C1.7987152,12.248394 2.69807281,14.3040685 4.19700214,15.8029979 C5.69593148,17.2591006 7.70877944,18.2012848 9.97858672,18.2012848 C12.248394,18.2012848 14.3040685,17.2591006 15.8029979,15.8029979 C17.2591006,14.3040685 18.2012848,12.248394 18.2012848,9.97858672 C18.2012848,7.70877944 17.2591006,5.69593148 15.8029979,4.19700214 M9.97858672,0 C12.7623126,0 15.2462527,1.11349036 17.0449679,2.91220557 L17.0877944,2.91220557 C18.8865096,4.75374732 20,7.23768737 20,9.97858672 C20,12.7623126 18.8865096,15.2462527 17.0877944,17.0449679 L17.0449679,17.0449679 L17.0449679,17.0877944 C15.2462527,18.8865096 12.7623126,20 9.97858672,20 C7.23768737,20 4.75374732,18.8865096 2.91220557,17.0877944 L2.91220557,17.0449679 C1.11349036,15.2462527 0,12.7623126 0,9.97858672 C0,7.23768737 1.11349036,4.75374732 2.91220557,2.91220557 C4.75374732,1.11349036 7.23768737,0 9.97858672,0" id="Fill-1"></path>
                            <path d="M13.2492468,9.63766417 L8.8068027,6.75889761 L8.8068027,12.5593974 L13.2492468,9.63766417 Z M8.40698273,4.3097977 L15.4260445,8.90723086 C15.8702889,9.16503085 16.0035622,9.7235975 15.6925911,10.1532642 C15.6481667,10.2821641 15.5593178,10.3251308 15.4260445,10.4110641 L8.36255829,15.0084973 C7.96273832,15.309264 7.38522058,15.180364 7.07424949,14.7506973 C6.98540061,14.6217973 6.89655172,14.4499307 6.89655172,14.278064 L6.89655172,5.040231 C6.89655172,4.52463102 7.34079614,4.13793103 7.87388943,4.13793103 C8.0515872,4.13793103 8.27370941,4.22386436 8.40698273,4.3097977 Z" id="Fill-3"></path>
                        </g>
                    </g>
                </g>
            </g>
        </g>
    </g>
</svg>
