<svg width="36px" height="36px" viewBox="0 0 36 36" version="1.1" xmlns="http://www.w3.org/2000/svg" xmlns:xlink="http://www.w3.org/1999/xlink">
    <!-- Generator: Sketch 51.3 (57544) - http://www.bohemiancoding.com/sketch -->
    <desc>Created with Sketch.</desc>
    <defs></defs>
    <g id="Page-1" stroke="none" stroke-width="1" fill="none" fill-rule="evenodd">
        <g id="Push-Notifications-Dashboard-UI" transform="translate(-969.000000, -408.000000)" fill="#FFFFFF">
            <g id="Realtime-Data" transform="translate(397.000000, 388.000000)">
                <g id="Messages-block" transform="translate(552.000000, 0.000000)">
                    <g id="Messages/icon" transform="translate(20.000000, 20.000000)">
                        <g id="Group">
                            <circle id="Oval-Copy-8" opacity="0.24" cx="18" cy="18" r="18"></circle>
                            <g id="Group-2-Copy-2" transform="translate(8.000000, 10.000000)">
                                <path d="M18.6034913,11.4599074 C18.6034913,12.4660013 17.7995012,13.2813496 16.80798,13.2813496 L8.50374065,13.2813496 C8.30448878,13.2747722 8.1127182,13.358255 7.98004988,13.5090299 L6.50872818,15.2290279 L5.03740648,13.5090299 C4.90473815,13.358255 4.71296758,13.2747722 4.51371571,13.2813496 L3.19201995,13.2813496 C2.20049875,13.2813496 1.39650873,12.4660013 1.39650873,11.4599074 L1.39650873,3.23811953 C1.39650873,2.23202567 2.20049875,1.41667729 3.19201995,1.41667729 L16.80798,1.41667729 C17.7995012,1.41667729 18.6034913,2.23202567 18.6034913,3.23811953 L18.6034913,11.4599074 Z M20,3.23811953 C20,1.44981742 18.5708229,0 16.80798,0 L3.19201995,0 C1.42917706,0 0,1.44981742 0,3.23811953 L0,11.4599074 C0,13.2482095 1.42917706,14.6980269 3.19201995,14.6980269 L4.18952618,14.6980269 L5.98503741,16.7724473 C6.26034913,17.0656489 6.71820449,17.0770329 7.0074813,16.7977451 C7.0159601,16.7893968 7.02418953,16.7810485 7.03241895,16.7724473 L8.82793017,14.6980269 L16.80798,14.6980269 C18.5708229,14.6980269 20,13.2482095 20,11.4599074 L20,3.23811953 Z" id="Fill-1"></path>
                                <ellipse id="Oval" cx="5.65217391" cy="6.71052632" rx="1.30434783" ry="1.34210526"></ellipse>
                                <ellipse id="Oval-Copy" cx="10" cy="6.71052632" rx="1.30434783" ry="1.34210526"></ellipse>
                                <ellipse id="Oval-Copy-2" cx="14.3478261" cy="6.71052632" rx="1.30434783" ry="1.34210526"></ellipse>
                            </g>
                        </g>
                    </g>
                </g>
            </g>
        </g>
    </g>
</svg>
