
<svg width="28px" height="28px" viewBox="0 0 28 28" version="1.1" xmlns="http://www.w3.org/2000/svg" xmlns:xlink="http://www.w3.org/1999/xlink">
    <!-- Generator: Sketch 51.3 (57544) - http://www.bohemiancoding.com/sketch -->
    <desc>Created with Sketch.</desc>
    <defs>
        <filter x="-3.1%" y="-0.7%" width="106.2%" height="102.1%" filterUnits="objectBoundingBox" id="filter-1">
            <feOffset dx="0" dy="2" in="SourceAlpha" result="shadowOffsetOuter1"></feOffset>
            <feGaussianBlur stdDeviation="2" in="shadowOffsetOuter1" result="shadowBlurOuter1"></feGaussianBlur>
            <feColorMatrix values="0 0 0 0 0   0 0 0 0 0   0 0 0 0 0  0 0 0 0.5 0" type="matrix" in="shadowBlurOuter1" result="shadowMatrixOuter1"></feColorMatrix>
            <feMerge>
                <feMergeNode in="shadowMatrixOuter1"></feMergeNode>
                <feMergeNode in="SourceGraphic"></feMergeNode>
            </feMerge>
        </filter>
    </defs>
    <g id="Page-1" stroke="none" stroke-width="1" fill="none" fill-rule="evenodd" opacity="0.7">
        <g id="Push-Notifications-Dashboard-UI" transform="translate(-117.000000, -485.000000)">
            <g id="Sidebar" transform="translate(77.000000, 178.000000)">
                <g id="Sidebar-items" filter="url(#filter-1)" transform="translate(44.000000, 140.000000)">
                    <g id="Users" transform="translate(0.000000, 167.000000)">
                        <g id="Group-8" transform="translate(3.000000, 5.000000)" fill="#FFFFFF">
                            <path d="M10.0434783,4.05029001 C10.0434783,6.01229238 8.48558352,8.375 6.56521739,8.375 C4.64505467,8.375 3.08695652,6.01229238 3.08695652,4.05029001 C3.08695652,2.08953335 4.64444444,0.5 6.56521739,0.5 C8.48639715,0.5 10.0434783,2.08953335 10.0434783,4.05029001" id="Fill-1"></path>
                            <path d="M13.5217391,14.4861697 C13.5217391,14.7496378 10.1061641,17.125 7,17.125 C3.95009242,17.125 0.47826087,14.9280493 0.47826087,14.4861697 C0.47826087,11.5942439 4.19922848,9.25 7,9.25 C9.80077152,9.25 13.5217391,11.5942439 13.5217391,14.4861697" id="Fill-3"></path>
                        </g>
                        <g id="Group-7" transform="translate(0.000000, 2.000000)">
                            <polygon id="Clip-6" points="5.76320519e-05 0.194475248 19.8125358 0.194475248 19.8125358 20.125 5.76320519e-05 20.125"></polygon>
                            <path d="M9.90679208,1.07001238 C4.91649505,1.07001238 0.871148515,5.14064233 0.871148515,10.1621287 C0.871148515,15.1836151 4.91649505,19.254245 9.90679208,19.254245 C14.8970891,19.254245 18.9424356,15.1836151 18.9424356,10.1621287 C18.9370891,5.14283416 14.8947129,1.07539233 9.90679208,1.07001238 M9.90679208,20.125 C4.43867327,20.1281881 0.00322772277,15.6702017 5.94059406e-05,10.1679072 C-0.00231683168,6.15944554 2.38283168,2.53993441 6.05332673,0.982339109 C11.0915446,-1.1592797 16.9012475,1.21467327 19.0295644,6.28457921 C21.1576832,11.3544851 18.7984752,17.2002995 13.7602574,19.3419183 C12.5414455,19.8615817 11.2307525,20.1279889 9.90679208,20.125" id="Fill-5" fill="#FFFFFF"></path>
                        </g>
                    </g>
                </g>
            </g>
        </g>
    </g>
</svg>
