
<svg width="28px" height="28px" viewBox="0 0 28 28" version="1.1" xmlns="http://www.w3.org/2000/svg" xmlns:xlink="http://www.w3.org/1999/xlink">
    <!-- Generator: Sketch 51.3 (57544) - http://www.bohemiancoding.com/sketch -->
    <desc>Created with Sketch.</desc>
    <defs>
        <filter x="-3.1%" y="-0.7%" width="106.2%" height="102.1%" filterUnits="objectBoundingBox" id="filter-1">
            <feOffset dx="0" dy="2" in="SourceAlpha" result="shadowOffsetOuter1"></feOffset>
            <feGaussianBlur stdDeviation="2" in="shadowOffsetOuter1" result="shadowBlurOuter1"></feGaussianBlur>
            <feColorMatrix values="0 0 0 0 0   0 0 0 0 0   0 0 0 0 0  0 0 0 0.5 0" type="matrix" in="shadowBlurOuter1" result="shadowMatrixOuter1"></feColorMatrix>
            <feMerge>
                <feMergeNode in="shadowMatrixOuter1"></feMergeNode>
                <feMergeNode in="SourceGraphic"></feMergeNode>
            </feMerge>
        </filter>
    </defs>
    <g id="Page-1" stroke="none" stroke-width="1" fill="none" fill-rule="evenodd" opacity="0.5">
        <g id="Push-Notifications-Dashboard-UI" transform="translate(-117.000000, -913.000000)">
            <g id="Sidebar" transform="translate(77.000000, 178.000000)">
                <g id="Sidebar-items" filter="url(#filter-1)" transform="translate(44.000000, 140.000000)">
                    <g id="Player-ID" transform="translate(0.000000, 595.000000)">
                        <g id="Group-30" transform="translate(0.000000, 2.000000)">
                            <path d="M9.08979592,2.23028283 C13.4732653,1.72139394 17.4457143,4.8199798 17.9714286,9.15755556 C18.0046939,9.43654545 18.2602041,9.63593939 18.5418367,9.6030101 C18.8234694,9.57008081 19.025102,9.31735354 18.9918367,9.03836364 C18.4053061,4.142 13.9197959,0.643616162 8.97346939,1.22422222 C4.02714286,1.8050303 0.492857143,6.2450303 1.07959184,11.1413939 C1.10959184,11.3957374 1.32693878,11.5874545 1.58571429,11.5878586 L1.64693878,11.5878586 C1.92673469,11.5553333 2.12693878,11.3042222 2.09408163,11.0272525 C2.09387755,11.0268485 2.09387755,11.0266465 2.09387755,11.0262424 C1.57612245,6.6860404 4.70632653,2.75068687 9.08979592,2.23028283" id="Fill-1" fill="#FFFFFF"></path>
                            <path d="M8.351,18.8403434 C8.60283673,18.9643838 8.9087551,18.8631717 9.03467347,18.6140808 C10.3718163,15.9595354 10.8942653,12.9754949 10.5367143,10.0302424 C10.503449,9.75145455 10.2481429,9.55185859 9.96630612,9.5849899 C9.68446939,9.61771717 9.48304082,9.87064646 9.51630612,10.1494343 C9.85202041,12.8977172 9.36753061,15.6829697 8.12242857,18.1617576 C7.99589796,18.4108485 8.09753061,18.7144848 8.34936735,18.8395354 C8.34997959,18.8399394 8.35059184,18.8401414 8.351,18.8403434" id="Fill-3" fill="#FFFFFF"></path>
                            <path d="M16.0000816,16.4847475 C16.0339592,16.4883838 16.0680408,16.4883838 16.1021224,16.4847475 C16.3443673,16.4849495 16.553551,16.3160606 16.6019184,16.0807071 C17.0572245,13.8421212 17.1494694,11.5461616 16.8755918,9.27888889 C16.7343673,8.10333333 16.2862041,6.98434343 15.5755918,6.03222222 C15.4064082,5.80919192 15.0866122,5.76393939 14.8613061,5.93121212 C14.6357959,6.09868687 14.5900816,6.41525253 14.7592653,6.63828283 C15.3641633,7.44959596 15.7451837,8.40272727 15.8653878,9.40414141 C16.1268163,11.5655556 16.0392653,13.7544444 15.606,15.8889899 C15.5494694,16.1609091 15.7253878,16.4271717 16.0000816,16.4847475" id="Fill-5" fill="#FFFFFF"></path>
                            <path d="M3.59793878,15.2000202 C4.17753061,13.7996162 4.38814286,12.2765859 4.21018367,10.7737576 C3.82793878,7.58830303 6.12691837,4.69941414 9.34467347,4.32123232 C10.5287551,4.1820404 11.7277347,4.40325253 12.7816122,4.95557576 C13.0307959,5.08608081 13.3395714,4.99193939 13.4714082,4.74547475 C13.6032449,4.49880808 13.5083469,4.19315152 13.2591633,4.06264646 C9.89936735,2.29658586 5.72957143,3.5610303 3.94569388,6.88688889 C3.28712245,8.11476768 3.0232449,9.51254545 3.18977551,10.8929495 C3.34916327,12.2244646 3.16446939,13.5743636 2.65304082,14.8161818 C2.5465102,15.0743636 2.67161224,15.3693131 2.93263265,15.4745657 C3.19365306,15.5802222 3.49140816,15.4563838 3.59793878,15.198 L3.59793878,15.2000202 Z" id="Fill-7" fill="#FFFFFF"></path>
                            <path d="M10.6835918,18.9312929 C10.9423673,19.042 11.2425714,18.9242222 11.3544082,18.6680606 C11.3546122,18.6676566 11.3548163,18.6670505 11.3550204,18.6666465 C12.5680816,15.8678586 13.0152245,12.802 12.6511429,9.77775758 C12.4529796,8.34967677 11.1225714,7.35088889 9.68012245,7.54705051 C8.27808163,7.73775758 7.27828571,8.98967677 7.41420408,10.3838182 C7.48665306,10.9910909 7.51338776,11.6030101 7.494,12.2141212 C7.48481633,12.4929091 7.70563265,12.7262424 7.98726531,12.7353333 L7.98787755,12.7353333 C8.26583673,12.7478586 8.50155102,12.5345253 8.51379592,12.2591717 C8.514,12.2549293 8.51420408,12.2506869 8.51440816,12.2464444 C8.53481633,11.5860404 8.50542857,10.9248283 8.42644898,10.2686667 C8.27420408,9.3979596 8.86379592,8.56987879 9.74338776,8.41917172 C10.6229796,8.26846465 11.4595102,8.85210101 11.6117551,9.72260606 C11.6221633,9.78159596 11.629102,9.84119192 11.6325714,9.9009899 C11.9733878,12.7476566 11.5511429,15.6329091 10.4080816,18.2666465 C10.2978776,18.5232121 10.4186939,18.8199798 10.6782857,18.9290707 C10.6799184,18.9296768 10.6817551,18.9304848 10.6835918,18.9312929" id="Fill-9" fill="#FFFFFF"></path>
                            <path d="M6.2755102,18.2019192 C6.52244898,18.3338384 6.83061224,18.2435354 6.96530612,17.999899 C7.44816327,17.1033333 7.82408163,16.1542424 8.08571429,15.1716162 C8.15734694,14.9017172 7.99408163,14.6253535 7.72142857,14.5544444 C7.44877551,14.4837374 7.16959184,14.6451515 7.09795918,14.9150505 C6.85755102,15.8273737 6.51020408,16.7087879 6.06326531,17.5413131 C5.94612245,17.7825253 6.03918367,18.0722222 6.2755102,18.2019192" id="Fill-11" fill="#FFFFFF"></path>
                            <path d="M14.2550204,10.1009899 C14.5368571,10.1009899 14.7652245,9.87492929 14.7652245,9.59593939 L14.7652245,9.54947475 L14.7652245,9.53331313 C14.448898,6.94583838 12.0735918,5.10220202 9.4595102,5.41553535 C9.14297959,5.45331313 8.83114286,5.52260606 8.5284898,5.62220202 C8.26093878,5.70987879 8.11563265,5.99553535 8.20420408,6.26058586 C8.29257143,6.52563636 8.58134694,6.66947475 8.84889796,6.58179798 C9.09012245,6.4999798 9.33910204,6.44240404 9.5917551,6.41008081 C11.6401224,6.17149495 13.4980816,7.61614141 13.749102,9.64240404 C13.7731837,9.90159596 13.9921633,10.0999798 14.2550204,10.1009899" id="Fill-13" fill="#FFFFFF"></path>
                            <path d="M13.2489592,18.2989899 C13.516102,18.3870707 13.8046735,18.2442424 13.8938571,17.979798 C14.5012041,16.1878788 14.8395714,14.3173737 14.8979388,12.4282828 C14.905898,12.150101 14.6850816,11.9179798 14.4040612,11.9090909 C14.125898,11.8967677 13.8905918,12.109899 13.8779388,12.3852525 C13.8777347,12.3894949 13.8775306,12.3937374 13.8775306,12.3979798 C13.8240612,14.1850505 13.5065102,15.9547475 12.9346735,17.6505051 C12.8393673,17.9129293 12.9771224,18.2022222 13.2422245,18.2965657 C13.2444694,18.2973737 13.2467143,18.2981818 13.2489592,18.2989899" id="Fill-15" fill="#FFFFFF"></path>
                            <path d="M4.47146939,17.0888283 C4.72187755,17.2167071 5.02963265,17.1193333 5.15881633,16.8716566 C5.15902041,16.8712525 5.15902041,16.8710505 5.15922449,16.8706465 C6.17718367,14.9177172 6.57983673,12.7072121 6.31432653,10.5251919 C6.21187755,9.666 6.41636735,8.79852525 6.89187755,8.07266667 C7.05514286,7.84539394 7.00146939,7.53024242 6.77187755,7.36842424 C6.54228571,7.20660606 6.22371429,7.25973737 6.06044898,7.4870101 C6.05208163,7.49872727 6.04412245,7.51084848 6.03677551,7.52317172 C5.43310204,8.44761616 5.17473469,9.55145455 5.30616327,10.6443838 C5.54657143,12.6274141 5.17963265,14.635899 4.25310204,16.4102424 C4.12473469,16.6573131 4.22228571,16.9605455 4.47146939,17.0888283" id="Fill-17" fill="#FFFFFF"></path>
                            <g id="Group-21" transform="translate(16.938776, 0.133333)">
                                <polygon id="Clip-20" points="0.102040816 0.0686868687 3.06122449 0.0686868687 3.06122449 2.99185859 0.102040816 2.99185859"></polygon>
                                <path d="M3.06122449,1.39993939 C3.06,0.665191919 2.45857143,0.0698383838 1.71632653,0.0686262626 L0.612244898,0.0686262626 C0.330408163,0.0686262626 0.102040816,0.294686869 0.102040816,0.573676768 C0.102040816,0.852666667 0.330408163,1.07872727 0.612244898,1.07872727 L1.71020408,1.07872727 C1.88938776,1.07549495 2.03734694,1.21650505 2.04081633,1.39387879 L2.04081633,1.39993939 L2.04081633,2.48680808 C2.04081633,2.76579798 2.26918367,2.99185859 2.55102041,2.99185859 C2.83285714,2.99185859 3.06122449,2.76579798 3.06122449,2.48680808 L3.06122449,1.39993939 Z" id="Fill-19" fill="#FFFFFF"></path>
                            </g>
                            <path d="M0,2.62022222 C0,2.8990101 0.228367347,3.12527273 0.510204082,3.12527273 C0.792040816,3.12527273 1.02040816,2.8990101 1.02040816,2.62022222 L1.02040816,1.53335354 C1.02040816,1.3559798 1.16571429,1.21214141 1.34489796,1.21214141 L2.44897959,1.21214141 C2.73081633,1.21214141 2.95918367,0.986080808 2.95918367,0.707090909 C2.95918367,0.42810101 2.73081633,0.202040404 2.44897959,0.202040404 L1.34489796,0.202040404 C0.602653061,0.203050505 0.00102040816,0.79840404 0,1.53335354 L0,2.62022222 Z" id="Fill-22" fill="#FFFFFF"></path>
                            <g id="Group-26" transform="translate(0.000000, 16.901010)">
                                <polygon id="Clip-25" points="0 0.107111111 2.95918367 0.107111111 2.95918367 3.03030303 0 3.03030303"></polygon>
                                <path d="M0,1.6990303 C0.00102040816,2.43377778 0.602653061,3.02913131 1.34489796,3.03034343 L2.44897959,3.03034343 C2.73081633,3.03034343 2.95918367,2.80428283 2.95918367,2.52529293 C2.95918367,2.24630303 2.73081633,2.02024242 2.44897959,2.02024242 L1.34489796,2.02024242 C1.16571429,2.02024242 1.02040816,1.87640404 1.02040816,1.6990303 L1.02040816,0.612161616 C1.02040816,0.333171717 0.792040816,0.107111111 0.510204082,0.107111111 C0.228367347,0.107111111 0,0.333171717 0,0.612161616 L0,1.6990303 Z" id="Fill-24" fill="#FFFFFF"></path>
                            </g>
                            <g id="Group-29" transform="translate(16.938776, 16.901010)">
                                <polygon id="Clip-28" points="0.102040816 0.107111111 3.06122449 0.107111111 3.06122449 3.03030303 0.102040816 3.03030303"></polygon>
                                <path d="M3.06122449,1.6990303 L3.06122449,0.612161616 C3.06122449,0.333171717 2.83285714,0.107111111 2.55102041,0.107111111 C2.26918367,0.107111111 2.04081633,0.333171717 2.04081633,0.612161616 L2.04081633,1.6990303 C2.04081633,1.87640404 1.8955102,2.02024242 1.71632653,2.02024242 L0.612244898,2.02024242 C0.330408163,2.02024242 0.102040816,2.24630303 0.102040816,2.52529293 C0.102040816,2.80428283 0.330408163,3.03034343 0.612244898,3.03034343 L1.71020408,3.03034343 C2.45408163,3.03256566 3.05897959,2.43741414 3.06122449,1.70105051 L3.06122449,1.6990303 Z" id="Fill-27" fill="#FFFFFF"></path>
                            </g>
                        </g>
                    </g>
                </g>
            </g>
        </g>
    </g>
</svg>
