 <svg width="28px" height="26px" viewBox="0 0 28 26" version="1.1" xmlns="http://www.w3.org/2000/svg" xmlns:xlink="http://www.w3.org/1999/xlink">
    <!-- Generator: Sketch 51.3 (57544) - http://www.bohemiancoding.com/sketch -->
    <desc>Created with Sketch.</desc>
    <defs>
        <filter x="-3.1%" y="-0.7%" width="106.2%" height="102.1%" filterUnits="objectBoundingBox" id="filter-1">
            <feOffset dx="0" dy="2" in="SourceAlpha" result="shadowOffsetOuter1"></feOffset>
            <feGaussianBlur stdDeviation="2" in="shadowOffsetOuter1" result="shadowBlurOuter1"></feGaussianBlur>
            <feColorMatrix values="0 0 0 0 0   0 0 0 0 0   0 0 0 0 0  0 0 0 0.5 0" type="matrix" in="shadowBlurOuter1" result="shadowMatrixOuter1"></feColorMatrix>
            <feMerge>
                <feMergeNode in="shadowMatrixOuter1"></feMergeNode>
                <feMergeNode in="SourceGraphic"></feMergeNode>
            </feMerge>
        </filter>
    </defs>
    <g id="Page-1" stroke="none" stroke-width="1" fill="none" fill-rule="evenodd" opacity="0.5">
        <g id="Push-Notifications-Dashboard-UI" transform="translate(-117.000000, -376.000000)" fill="#FFFFFF">
            <g id="Sidebar" transform="translate(77.000000, 178.000000)">
                <g id="Sidebar-items" filter="url(#filter-1)" transform="translate(44.000000, 140.000000)">
                    <g id="Dashboard" transform="translate(0.000000, 57.000000)">
                        <path d="M8.67798447,15.9913043 C8.67961423,15.9616588 8.68176216,15.9402949 8.68180395,15.9189393 C8.68210482,15.7742256 8.67908769,15.6294299 8.68342534,15.4848473 C8.68508853,15.4296273 8.66451183,15.4030618 8.6161875,15.3783066 C8.34501299,15.2393107 8.10128523,15.0622481 7.89282703,14.8428265 C7.22054893,14.1351825 6.93956246,13.2993473 7.09119653,12.3431931 C7.21726434,11.5482178 7.63368763,10.9122425 8.29461596,10.4375445 C8.94168718,9.97279113 9.66971962,9.79155902 10.4643464,9.90323581 C11.1404439,9.99826716 11.7134323,10.3005555 12.1886856,10.7804307 C12.9557319,11.5549596 13.2229615,12.6728989 12.8840728,13.692694 C12.7094467,14.2181803 12.4029524,14.6616354 11.9972604,15.0412038 C11.9569177,15.0789509 11.9419658,15.1164605 11.9428266,15.1692065 C11.9454426,15.3302626 11.9434535,15.4913842 11.9442057,15.652473 C11.9442976,15.6727146 11.9370598,15.6955939 11.9547865,15.7135828 C13.0260286,15.051558 13.8841824,13.6076319 13.4665472,11.9542862 C13.0757905,10.4073419 11.612095,9.24695342 9.83407414,9.344901 C8.12851467,9.43885925 6.75799939,10.7016679 6.53739743,12.342251 C6.30201903,14.0927825 7.42799584,15.478253 8.67798447,15.9913043 M11.8964027,18.5658752 C11.944956,18.5720662 11.9774664,18.5538687 12.0110419,18.5430221 C12.8535487,18.2708604 13.5976757,17.8348477 14.244979,17.2409303 C15.7144357,15.8926506 16.430396,13.9604343 16.1735084,11.9917087 C16.0973624,11.4080988 15.9391541,10.846223 15.6979434,10.3068899 C14.8012332,8.30194084 12.8376139,6.86454408 10.4617029,6.69485339 C9.85526443,6.65154045 9.2541181,6.6929585 8.65945388,6.81989164 C7.57356447,7.05167266 6.61313162,7.52818038 5.79722717,8.26784098 C4.5414135,9.40630247 3.87891603,10.8242276 3.7842141,12.4967786 C3.74842524,13.1287817 3.81837203,13.7526089 3.98822141,14.3640786 C4.31902497,15.5550743 4.95781575,16.5595294 5.90100738,17.3745528 C6.67484056,18.0432203 7.56593407,18.4932323 8.57174164,18.7213297 C8.64763798,18.738547 8.64825374,18.7382122 8.64856162,18.6582429 C8.64903592,18.5330004 8.6489111,18.4077662 8.64860322,18.2825319 C8.64841184,18.2083045 8.64800411,18.2084352 8.57675091,18.1904419 C7.68775432,17.9659137 6.89803623,17.5560457 6.21849725,16.9509386 C5.13887359,15.9895595 4.51550173,14.7941533 4.34963813,13.3723812 C4.2964333,12.9162844 4.30939751,12.4596486 4.37481765,12.0043603 C4.46511774,11.3760164 4.65891512,10.7806615 4.95677562,10.2178709 C5.8300371,8.56784621 7.50142924,7.43624553 9.39222266,7.24344045 C10.0267364,7.17873648 10.655467,7.20934876 11.2762843,7.35193925 C12.4708384,7.62628179 13.4784017,8.21460437 14.2867506,9.11997802 C15.1281924,10.0624164 15.5917584,11.1639112 15.673155,12.4154617 C15.707055,12.9367443 15.6606235,13.4535103 15.5471908,13.9649428 C15.1696562,15.6669218 13.9765001,17.1088761 12.3555335,17.8173608 C12.2213648,17.8760126 12.0850244,17.9291594 11.9466452,17.977283 C11.9191358,17.9868555 11.8957869,17.9950966 11.8959783,18.0310261 C11.8969186,18.2076592 11.8964027,18.3842924 11.8964027,18.5658752 M15.4651642,21 L15.4318204,21 C15.4377222,20.9693172 15.4090966,20.9659812 15.3923996,20.9562906 C15.280281,20.8912065 15.1679956,20.8263502 15.0543015,20.7639512 C13.9264462,20.1448673 12.7287272,19.7191641 11.4479071,19.5236027 C11.3294114,19.5055071 11.3295781,19.5044737 11.3295781,19.3860791 C11.3295781,17.1354831 11.3295781,14.8848871 11.3295531,12.6342993 C11.3295531,12.6071802 11.3292197,12.5800693 11.3290363,12.5529584 C11.3289029,12.5335853 11.3194999,12.5225766 11.2991268,12.5221779 C11.2769032,12.5217385 11.2546795,12.5215839 11.2324558,12.5215758 C10.9018684,12.5215514 10.5712892,12.5215595 10.2407018,12.5215595 C9.72399732,12.5215595 9.20727621,12.5214456 8.69057177,12.5216816 C8.61777384,12.5217223 8.6169069,12.5225115 8.61683188,12.5922578 C8.6164901,12.8986632 8.6164651,13.2050685 8.61685689,13.5114739 C8.61694858,13.5784212 8.6179489,13.579243 8.6847366,13.5795685 C8.80975098,13.5801868 8.93476537,13.5792349 9.05977141,13.5799102 C9.17392404,13.5805204 9.16108666,13.5671358 9.16110333,13.6802336 C9.16135341,15.5539131 9.16129506,17.4276007 9.16128672,19.3012884 C9.16128672,19.3175614 9.160053,19.333924 9.16144511,19.350075 C9.1645961,19.3867463 9.15149197,19.4047036 9.1105374,19.4049396 C9.06909935,19.4051756 9.02762795,19.4113919 8.98631494,19.416111 C8.83754307,19.4331164 8.68982154,19.4602924 8.53885731,19.4550769 C8.47507889,19.4528719 8.41141717,19.4585593 8.34762207,19.4637179 C8.21889819,19.4741489 8.09952725,19.5205759 7.97552986,19.5488829 C7.67594381,19.6172785 7.37576592,19.6833797 7.08181499,19.7733616 C6.93378502,19.8186739 6.78299585,19.8543037 6.63863371,19.912187 C6.47414856,19.9781254 6.3193498,20.0638519 6.15723206,20.1325811 C5.94367312,20.2231162 5.73136457,20.3146115 5.52285722,20.4160984 C5.40856288,20.471736 5.29668597,20.5305061 5.18530088,20.5910907 C4.98359568,20.7007955 4.79660344,20.8324933 4.60435954,20.9562987 C4.56879001,20.9792112 4.54675807,20.9880963 4.50492822,20.9601798 C2.42962446,19.5756765 1.03521853,17.7107763 0.349335802,15.3473348 C0.190127315,14.7987457 0.0907876882,14.2383993 0.039404835,13.6700304 C0.0230496828,13.4890252 0.0125130302,13.3078166 0.00345184247,13.1264371 C0.00465222061,13.1022472 0.00794492454,13.0779434 0.00672787448,13.0538593 C-0.00253337632,12.86999 -0.00208323451,12.6861615 0.0071530084,12.5023004 C0.00822834715,12.4809094 0.00506901857,12.4593232 0.00387697639,12.4378347 C0.00501066686,12.4216023 0.00664451488,12.4054025 0.00723636799,12.389162 C0.0287181351,11.7997601 0.105517328,11.2171522 0.241160058,10.6425831 C0.747052757,8.49956831 1.85840285,6.71091551 3.58036197,5.29657552 C5.35394568,3.8398198 7.41106037,3.08077944 9.72909059,3 C9.92976214,3.00462155 10.130442,3.00454018 10.3311219,3.00005696 C10.6507559,3.00698114 10.9691562,3.03202537 11.2861061,3.07119461 C11.9403705,3.15203101 12.5805222,3.29433888 13.2061276,3.4988749 C15.7939428,4.3449761 17.9249391,6.19952663 19.0820786,8.62015978 C19.6188394,9.74302496 19.9248608,10.9235049 19.9851131,12.1628851 C19.9843045,12.1948291 19.9842045,12.226822 19.9825706,12.2587334 C19.9783193,12.3416853 20.0014682,12.4227414 19.9999261,12.5054655 L19.9999261,12.8960188 C19.9995176,12.9519981 19.9980922,13.0075869 19.9911983,13.0635987 C19.9814286,13.1430194 19.9775774,13.2234489 19.9851964,13.3037076 C19.9832625,13.3660009 19.983771,13.428465 19.9789945,13.4905467 C19.9384651,14.0180296 19.8617075,14.5402238 19.7351844,15.0549324 C19.2452133,17.0481863 18.2156223,18.7274028 16.6530301,20.0956006 C16.2991519,20.4054639 15.9213496,20.6855151 15.5249831,20.9418401 C15.5023009,20.9565021 15.4647224,20.9610016 15.4651642,21" id="Fill-1"></path>
                    </g>
                </g>
            </g>
        </g>
    </g>
</svg>
