<svg width="30px" height="23px" viewBox="0 0 30 23" version="1.1" xmlns="http://www.w3.org/2000/svg" xmlns:xlink="http://www.w3.org/1999/xlink">
    <!-- Generator: Sketch 51.3 (57544) - http://www.bohemiancoding.com/sketch -->
    <desc>Created with Sketch.</desc>
    <defs>
        <filter x="-3.1%" y="-0.7%" width="106.2%" height="102.1%" filterUnits="objectBoundingBox" id="filter-1">
            <feOffset dx="0" dy="2" in="SourceAlpha" result="shadowOffsetOuter1"></feOffset>
            <feGaussianBlur stdDeviation="2" in="shadowOffsetOuter1" result="shadowBlurOuter1"></feGaussianBlur>
            <feColorMatrix values="0 0 0 0 0   0 0 0 0 0   0 0 0 0 0  0 0 0 0.5 0" type="matrix" in="shadowBlurOuter1" result="shadowMatrixOuter1"></feColorMatrix>
            <feMerge>
                <feMergeNode in="shadowMatrixOuter1"></feMergeNode>
                <feMergeNode in="SourceGraphic"></feMergeNode>
            </feMerge>
        </filter>
    </defs>
    <g id="Page-1" stroke="none" stroke-width="1" fill="none" fill-rule="evenodd">
        <g id="Push-Notifications-Dashboard-UI" transform="translate(-117.000000, -542.000000)">
            <g id="Sidebar" transform="translate(77.000000, 178.000000)">
                <g id="Sidebar-items" filter="url(#filter-1)" transform="translate(44.000000, 140.000000)">
                    <g id="Delivery" transform="translate(0.000000, 222.000000)">
                        <g id="Group-10" transform="translate(0.000000, 4.000000)">
                            <g id="Group-3" transform="translate(7.178947, 0.058594)">
                                <polygon id="Clip-2" points="0.185263158 0.17578125 14.8210526 0.17578125 14.8210526 14.7655781 0.185263158 14.7655781"></polygon>
                                <path d="M13.6631579,11.5312031 L11.44,12.258 L11.44,9.72651562 C11.44,9.39839062 11.1852632,9.14057812 10.8610526,9.14057812 C10.5368421,9.14057812 10.3052632,9.39839062 10.3052632,9.72651562 L10.3052632,12.6562031 L8.08210526,13.3827656 L8.08210526,5.64839062 L13.6631579,3.79682812 L13.6631579,11.5312031 Z M7.50315789,4.61714062 L5.92842105,4.10151562 L7.04,3.70307813 C7.34105263,3.58589063 7.50315789,3.25776562 7.38736842,2.95307813 C7.27157895,2.64839063 6.94736842,2.50776562 6.64631579,2.60151563 L4.16842105,3.51557812 L2.61684211,2.99995313 L7.50315789,1.38276562 L12.3894737,2.99995313 L7.50315789,4.61714062 Z M6.92421053,13.3827656 L1.34315789,11.5312031 L1.34315789,3.79682812 L3.56631579,4.52339062 L3.56631579,8.90620312 C3.56631579,9.23432812 3.82105263,9.49214062 4.14526316,9.49214062 C4.46947368,9.49214062 4.72421053,9.23432812 4.72421053,8.90620312 L4.72421053,4.92182812 L6.94736842,5.64839062 L6.94736842,13.3827656 L6.92421053,13.3827656 Z M14.4273684,2.43745313 L7.68842105,0.210890625 C7.57263158,0.164015625 7.45684211,0.164015625 7.31789474,0.210890625 L0.578947368,2.43745313 C0.347368421,2.50776563 0.185263158,2.74214063 0.185263158,2.99995313 L0.185263158,11.9530781 C0.185263158,12.2108906 0.347368421,12.4218281 0.578947368,12.5155781 L7.31789474,14.7421406 C7.38736842,14.7655781 7.43368421,14.7655781 7.50315789,14.7655781 C7.57263158,14.7655781 7.61894737,14.7655781 7.68842105,14.7421406 L14.4273684,12.492375 C14.6589474,12.4218281 14.8210526,12.1874531 14.8210526,11.9296406 L14.8210526,2.99995313 C14.8210526,2.74214063 14.6589474,2.53120313 14.4273684,2.43745313 Z" id="Fill-1" fill="#F5F6FA"></path>
                            </g>
                            <path d="M4.67794105,3.69142969 L0.578993684,3.69142969 C0.254783158,3.69142969 4.63157895e-05,3.94924219 4.63157895e-05,4.27736719 C4.63157895e-05,4.60549219 0.254783158,4.86330469 0.578993684,4.86330469 L4.67794105,4.86330469 C5.00215158,4.86330469 5.25688842,4.60549219 5.25688842,4.27736719 C5.23373053,3.94924219 4.97899368,3.69142969 4.67794105,3.69142969" id="Fill-4" fill="#F5F6FA"></path>
                            <path d="M4.67794105,6.94921875 L0.578993684,6.94921875 C0.254783158,6.94921875 4.63157895e-05,7.20703125 4.63157895e-05,7.53515625 C4.63157895e-05,7.86328125 0.254783158,8.12109375 0.578993684,8.12109375 L4.67794105,8.12109375 C5.00215158,8.12109375 5.25688842,7.86328125 5.25688842,7.53515625 C5.25688842,7.20703125 4.97899368,6.94921875 4.67794105,6.94921875" id="Fill-6" fill="#F5F6FA"></path>
                            <path d="M4.67794105,10.2070078 L0.578993684,10.2070078 C0.254783158,10.2070078 4.63157895e-05,10.4648203 4.63157895e-05,10.7929453 C4.63157895e-05,11.1210703 0.254783158,11.3788828 0.578993684,11.3788828 L4.67794105,11.3788828 C5.00215158,11.3788828 5.25688842,11.1210703 5.25688842,10.7929453 C5.25688842,10.4648203 4.97899368,10.2070078 4.67794105,10.2070078" id="Fill-8" fill="#F5F6FA"></path>
                        </g>
                    </g>
                </g>
            </g>
        </g>
    </g>
</svg>
